<?xml version="1.0" encoding="UTF-8"?>
<!-- Orion-X Phoenix Edition — Nebula AI icon -->
<!-- @decision DEC-PHASE11-010 — Orion-X-Icons orionx-nebula symbol -->
<!-- License: GPL-3.0+ (Orion-X project, original work) -->
<svg xmlns="http://www.w3.org/2000/svg" viewBox="0 0 48 48" width="48" height="48">
  <circle cx="24" cy="24" r="23" fill="#1a1a1a" stroke="#FF5722" stroke-width="1"/>
  <!-- Brain/AI circuit motif -->
  <!-- Central processor -->
  <rect x="18" y="18" width="12" height="12" rx="2" fill="#2d2d2d" stroke="#FF5722" stroke-width="1.5"/>
  <!-- CPU pins left -->
  <line x1="10" y1="21" x2="18" y2="21" stroke="#FF5722" stroke-width="1.5"/>
  <line x1="10" y1="24" x2="18" y2="24" stroke="#FF5722" stroke-width="1.5"/>
  <line x1="10" y1="27" x2="18" y2="27" stroke="#FF5722" stroke-width="1.5"/>
  <!-- CPU pins right -->
  <line x1="30" y1="21" x2="38" y2="21" stroke="#FF5722" stroke-width="1.5"/>
  <line x1="30" y1="24" x2="38" y2="24" stroke="#FF5722" stroke-width="1.5"/>
  <line x1="30" y1="27" x2="38" y2="27" stroke="#FF5722" stroke-width="1.5"/>
  <!-- CPU pins top -->
  <line x1="21" y1="10" x2="21" y2="18" stroke="#FF5722" stroke-width="1.5"/>
  <line x1="24" y1="10" x2="24" y2="18" stroke="#FF5722" stroke-width="1.5"/>
  <line x1="27" y1="10" x2="27" y2="18" stroke="#FF5722" stroke-width="1.5"/>
  <!-- CPU pins bottom -->
  <line x1="21" y1="30" x2="21" y2="38" stroke="#FF5722" stroke-width="1.5"/>
  <line x1="24" y1="30" x2="24" y2="38" stroke="#FF5722" stroke-width="1.5"/>
  <line x1="27" y1="30" x2="27" y2="38" stroke="#FF5722" stroke-width="1.5"/>
  <!-- Core spark -->
  <circle cx="24" cy="24" r="3" fill="#FF5722"/>
</svg>
